%
M48
M72
T01C0.02756
T02C0.03150
T03C0.03200
%
T01
X54937Y119937
X139937Y134622
X139937Y95252
T02
X29937Y24937
X34937Y39937
X44937Y39937
X44937Y49937
X34937Y49937
X49937Y24937
X74937Y59937
X84937Y59937
X94937Y59937
X104937Y59937
X116000Y69937
X123874Y69937
X94937Y79937
X84937Y79937
X74937Y79937
X64937Y79937
X54937Y79937
X44937Y79937
X34937Y79937
X34937Y119937
X44937Y119937
X64937Y119937
X74937Y119937
X84937Y119937
X94937Y119937
X89937Y139937
X79937Y139937
X54937Y149937
X44937Y149937
X34937Y149937
X89937Y34937
X129937Y34937
T03
X74937Y34937
X74937Y44937
X74937Y24937
M30
