G75*
%MOIN*%
%OFA0B0*%
%FSLAX25Y25*%
%IPPOS*%
%LPD*%
%AMOC8*
5,1,8,0,0,1.08239X$1,22.5*
%
%ADD10C,0.07087*%
%ADD11C,0.06299*%
%ADD12R,0.06299X0.06299*%
%ADD13C,0.06299*%
%ADD14C,0.05512*%
%ADD15C,0.05200*%
%ADD16C,0.04000*%
D10*
X0024937Y0076394D02*
X0024937Y0083480D01*
X0034937Y0083480D02*
X0034937Y0076394D01*
X0044937Y0076394D02*
X0044937Y0083480D01*
X0054937Y0083480D02*
X0054937Y0076394D01*
X0064937Y0076394D02*
X0064937Y0083480D01*
X0074937Y0083480D02*
X0074937Y0076394D01*
X0084937Y0076394D02*
X0084937Y0083480D01*
X0084937Y0116394D02*
X0084937Y0123480D01*
X0074937Y0123480D02*
X0074937Y0116394D01*
X0064937Y0116394D02*
X0064937Y0123480D01*
X0054937Y0123480D02*
X0054937Y0116394D01*
X0044937Y0116394D02*
X0044937Y0123480D01*
X0034937Y0123480D02*
X0034937Y0116394D01*
X0024937Y0116394D02*
X0024937Y0123480D01*
D11*
X0019937Y0024937D03*
X0024937Y0039937D03*
X0034937Y0039937D03*
X0034937Y0049937D03*
X0024937Y0049937D03*
X0039937Y0024937D03*
X0064937Y0059937D03*
X0074937Y0059937D03*
X0099937Y0039937D03*
X0109937Y0039937D03*
X0109937Y0073874D03*
X0079937Y0139937D03*
D12*
X0069937Y0139937D03*
X0109937Y0066000D03*
D13*
X0044937Y0146787D02*
X0044937Y0153087D01*
X0034937Y0153087D02*
X0034937Y0146787D01*
X0024937Y0146787D02*
X0024937Y0153087D01*
D14*
X0134937Y0139622D03*
X0134937Y0100252D03*
D15*
X0072537Y0044937D02*
X0067337Y0044937D01*
X0067337Y0034937D02*
X0072537Y0034937D01*
X0072537Y0024937D02*
X0067337Y0024937D01*
D16*
X0069937Y0024937D02*
X0034937Y0039937D01*
X0024937Y0039937D02*
X0024937Y0049937D01*
X0024937Y0079937D01*
X0034937Y0079937D02*
X0044937Y0079937D01*
X0054937Y0079937D02*
X0054937Y0100252D01*
X0134937Y0100252D01*
X0119937Y0094937D02*
X0064937Y0094937D01*
X0064937Y0079937D01*
X0064937Y0059937D01*
X0074937Y0059937D02*
X0094937Y0049937D01*
X0109937Y0044937D01*
X0109937Y0039937D01*
X0099937Y0039937D02*
X0069937Y0034937D01*
X0069937Y0044937D02*
X0034937Y0049937D01*
X0034937Y0079937D01*
X0034937Y0104937D02*
X0054937Y0109937D01*
X0054937Y0119937D01*
X0059937Y0134937D01*
X0077290Y0129349D01*
X0079937Y0139937D01*
X0134937Y0139937D01*
X0134937Y0139622D01*
X0144937Y0139622D01*
X0144937Y0139937D01*
X0144937Y0139622D02*
X0144937Y0054937D01*
X0129937Y0054937D01*
X0129937Y0034937D01*
X0069937Y0014937D01*
X0039937Y0024937D01*
X0019937Y0024937D02*
X0024937Y0039937D01*
X0074937Y0059937D02*
X0074937Y0079937D01*
X0084937Y0079937D02*
X0104937Y0054937D01*
X0129937Y0054937D01*
X0119937Y0066000D02*
X0119937Y0094937D01*
X0109937Y0073874D02*
X0084937Y0079937D01*
X0109937Y0066000D02*
X0119937Y0066000D01*
X0074937Y0119937D02*
X0077290Y0129349D01*
X0069937Y0139937D02*
X0069937Y0164937D01*
X0034937Y0164937D01*
X0034937Y0149937D01*
X0044937Y0149937D02*
X0039937Y0139937D01*
X0024937Y0129937D01*
X0024937Y0119937D01*
X0034937Y0119937D02*
X0034937Y0104937D01*
M02*
