G75*
%MOIN*%
%OFA0B0*%
%FSLAX25Y25*%
%IPPOS*%
%LPD*%
%AMOC8*
5,1,8,0,0,1.08239X$1,22.5*
%
%ADD10C,0.00600*%
%ADD11C,0.01600*%
%ADD12C,0.01000*%
%ADD13C,0.00400*%
%ADD14C,0.00500*%
D10*
X0091300Y0013150D02*
X0091300Y0017554D01*
X0094236Y0013150D01*
X0094236Y0017554D01*
X0096638Y0016086D02*
X0098106Y0016086D01*
X0098840Y0015352D01*
X0098840Y0013150D01*
X0096638Y0013150D01*
X0095904Y0013884D01*
X0096638Y0014618D01*
X0098840Y0014618D01*
X0100508Y0016086D02*
X0101976Y0016086D01*
X0101242Y0016820D02*
X0101242Y0013884D01*
X0101976Y0013150D01*
X0103577Y0013150D02*
X0103577Y0017554D01*
X0104311Y0016086D02*
X0105779Y0016086D01*
X0106513Y0015352D01*
X0106513Y0013150D01*
X0108181Y0013884D02*
X0108915Y0014618D01*
X0111117Y0014618D01*
X0111117Y0015352D02*
X0111117Y0013150D01*
X0108915Y0013150D01*
X0108181Y0013884D01*
X0108915Y0016086D02*
X0110383Y0016086D01*
X0111117Y0015352D01*
X0112785Y0016086D02*
X0112785Y0013150D01*
X0115721Y0013150D02*
X0115721Y0015352D01*
X0114987Y0016086D01*
X0112785Y0016086D01*
X0111918Y0020650D02*
X0111918Y0025054D01*
X0109716Y0022852D01*
X0112652Y0022852D01*
X0114320Y0021384D02*
X0117255Y0024320D01*
X0117255Y0021384D01*
X0116521Y0020650D01*
X0115054Y0020650D01*
X0114320Y0021384D01*
X0114320Y0024320D01*
X0115054Y0025054D01*
X0116521Y0025054D01*
X0117255Y0024320D01*
X0123527Y0023586D02*
X0123527Y0020650D01*
X0123527Y0023586D02*
X0125729Y0023586D01*
X0126463Y0022852D01*
X0126463Y0020650D01*
X0128131Y0021384D02*
X0128131Y0022118D01*
X0128865Y0022852D01*
X0130333Y0022852D01*
X0131067Y0022118D01*
X0131067Y0021384D01*
X0130333Y0020650D01*
X0128865Y0020650D01*
X0128131Y0021384D01*
X0128865Y0022852D02*
X0128131Y0023586D01*
X0128131Y0024320D01*
X0128865Y0025054D01*
X0130333Y0025054D01*
X0131067Y0024320D01*
X0131067Y0023586D01*
X0130333Y0022852D01*
X0132735Y0022118D02*
X0132735Y0021384D01*
X0133469Y0020650D01*
X0134937Y0020650D01*
X0135671Y0021384D01*
X0135671Y0022118D01*
X0134937Y0022852D01*
X0133469Y0022852D01*
X0132735Y0023586D01*
X0132735Y0024320D01*
X0133469Y0025054D01*
X0134937Y0025054D01*
X0135671Y0024320D01*
X0135671Y0023586D01*
X0134937Y0022852D01*
X0133469Y0022852D02*
X0132735Y0022118D01*
X0137339Y0021384D02*
X0140275Y0024320D01*
X0140275Y0021384D01*
X0139541Y0020650D01*
X0138073Y0020650D01*
X0137339Y0021384D01*
X0137339Y0024320D01*
X0138073Y0025054D01*
X0139541Y0025054D01*
X0140275Y0024320D01*
X0141943Y0024320D02*
X0142677Y0025054D01*
X0144145Y0025054D01*
X0144879Y0024320D01*
X0144879Y0023586D01*
X0141943Y0020650D01*
X0144879Y0020650D01*
X0146547Y0021384D02*
X0147281Y0020650D01*
X0148749Y0020650D01*
X0149483Y0021384D01*
X0149483Y0022852D01*
X0148749Y0023586D01*
X0148015Y0023586D01*
X0146547Y0022852D01*
X0146547Y0025054D01*
X0149483Y0025054D01*
X0151151Y0024320D02*
X0151885Y0025054D01*
X0153353Y0025054D01*
X0154087Y0024320D01*
X0154087Y0023586D01*
X0153353Y0022852D01*
X0154087Y0022118D01*
X0154087Y0021384D01*
X0153353Y0020650D01*
X0151885Y0020650D01*
X0151151Y0021384D01*
X0152619Y0022852D02*
X0153353Y0022852D01*
X0155755Y0021384D02*
X0158691Y0024320D01*
X0158691Y0021384D01*
X0157957Y0020650D01*
X0156489Y0020650D01*
X0155755Y0021384D01*
X0155755Y0024320D01*
X0156489Y0025054D01*
X0157957Y0025054D01*
X0158691Y0024320D01*
X0147948Y0015352D02*
X0147948Y0014618D01*
X0145012Y0014618D01*
X0145012Y0013884D02*
X0145012Y0015352D01*
X0145746Y0016086D01*
X0147214Y0016086D01*
X0147948Y0015352D01*
X0147214Y0013150D02*
X0145746Y0013150D01*
X0145012Y0013884D01*
X0143344Y0013150D02*
X0141142Y0013150D01*
X0140409Y0013884D01*
X0140409Y0015352D01*
X0141142Y0016086D01*
X0143344Y0016086D01*
X0143344Y0012416D01*
X0142610Y0011682D01*
X0141876Y0011682D01*
X0138740Y0013150D02*
X0138740Y0015352D01*
X0138006Y0016086D01*
X0136539Y0016086D01*
X0136539Y0014618D02*
X0138740Y0014618D01*
X0138740Y0013150D02*
X0136539Y0013150D01*
X0135805Y0013884D01*
X0136539Y0014618D01*
X0134137Y0015352D02*
X0134137Y0013150D01*
X0132669Y0013150D02*
X0132669Y0015352D01*
X0133403Y0016086D01*
X0134137Y0015352D01*
X0132669Y0015352D02*
X0131935Y0016086D01*
X0131201Y0016086D01*
X0131201Y0013150D01*
X0129533Y0013150D02*
X0127331Y0013150D01*
X0126597Y0013884D01*
X0127331Y0014618D01*
X0129533Y0014618D01*
X0129533Y0015352D02*
X0129533Y0013150D01*
X0129533Y0015352D02*
X0128799Y0016086D01*
X0127331Y0016086D01*
X0124929Y0016820D02*
X0124929Y0015352D01*
X0124195Y0014618D01*
X0121993Y0014618D01*
X0121993Y0013150D02*
X0121993Y0017554D01*
X0124195Y0017554D01*
X0124929Y0016820D01*
X0123461Y0014618D02*
X0124929Y0013150D01*
X0108048Y0020650D02*
X0105112Y0020650D01*
X0108048Y0023586D01*
X0108048Y0024320D01*
X0107314Y0025054D01*
X0105846Y0025054D01*
X0105112Y0024320D01*
X0103444Y0024320D02*
X0103444Y0023586D01*
X0102710Y0022852D01*
X0100508Y0022852D01*
X0098840Y0022852D02*
X0098840Y0021384D01*
X0098106Y0020650D01*
X0096638Y0020650D01*
X0095904Y0021384D01*
X0095904Y0024320D01*
X0096638Y0025054D01*
X0098106Y0025054D01*
X0098840Y0024320D01*
X0098840Y0022852D02*
X0097372Y0022852D01*
X0100508Y0020650D02*
X0102710Y0020650D01*
X0103444Y0021384D01*
X0103444Y0022118D01*
X0102710Y0022852D01*
X0103444Y0024320D02*
X0102710Y0025054D01*
X0100508Y0025054D01*
X0100508Y0020650D01*
X0104311Y0016086D02*
X0103577Y0015352D01*
X0094236Y0020650D02*
X0091300Y0020650D01*
X0091300Y0025054D01*
X0094236Y0025054D01*
X0092768Y0022852D02*
X0091300Y0022852D01*
D11*
X0008874Y0008874D02*
X0181276Y0008874D01*
X0181276Y0172850D01*
X0008874Y0172850D02*
X0008874Y0008874D01*
D12*
X0024937Y0019937D02*
X0024937Y0029937D01*
X0054937Y0029937D01*
X0054937Y0019937D01*
X0024937Y0019937D01*
X0033937Y0024937D02*
X0038937Y0024937D01*
X0040937Y0024937D02*
X0045937Y0024937D01*
X0040937Y0027937D02*
X0040937Y0021937D01*
X0038937Y0021937D02*
X0038937Y0027937D01*
X0029937Y0034937D02*
X0029937Y0044937D01*
X0049937Y0044937D01*
X0049937Y0034937D01*
X0029937Y0034937D01*
X0036937Y0038937D02*
X0040937Y0038937D01*
X0040937Y0040937D02*
X0036937Y0040937D01*
X0036937Y0048937D02*
X0040937Y0048937D01*
X0040937Y0050937D02*
X0036937Y0050937D01*
X0029937Y0054937D02*
X0029937Y0044937D01*
X0049937Y0044937D01*
X0049937Y0054937D01*
X0029937Y0054937D01*
X0040937Y0049937D02*
X0040939Y0050063D01*
X0040945Y0050189D01*
X0040955Y0050315D01*
X0040969Y0050441D01*
X0040987Y0050566D01*
X0041009Y0050690D01*
X0041034Y0050814D01*
X0041064Y0050937D01*
X0041097Y0051058D01*
X0041135Y0051179D01*
X0041176Y0051298D01*
X0041221Y0051417D01*
X0041269Y0051533D01*
X0041321Y0051648D01*
X0041377Y0051761D01*
X0041437Y0051873D01*
X0041500Y0051982D01*
X0041566Y0052090D01*
X0041635Y0052195D01*
X0041708Y0052298D01*
X0041785Y0052399D01*
X0041864Y0052497D01*
X0041946Y0052593D01*
X0042032Y0052686D01*
X0042120Y0052777D01*
X0042211Y0052864D01*
X0042305Y0052949D01*
X0042401Y0053030D01*
X0042500Y0053109D01*
X0042601Y0053184D01*
X0042705Y0053256D01*
X0042811Y0053325D01*
X0042919Y0053391D01*
X0043029Y0053453D01*
X0043141Y0053511D01*
X0043254Y0053566D01*
X0043370Y0053617D01*
X0043487Y0053665D01*
X0043605Y0053709D01*
X0043725Y0053749D01*
X0043846Y0053785D01*
X0043968Y0053818D01*
X0044091Y0053847D01*
X0044215Y0053871D01*
X0044339Y0053892D01*
X0044464Y0053909D01*
X0044590Y0053922D01*
X0044716Y0053931D01*
X0044842Y0053936D01*
X0044969Y0053937D01*
X0045095Y0053934D01*
X0045221Y0053927D01*
X0045347Y0053916D01*
X0045472Y0053901D01*
X0045597Y0053882D01*
X0045721Y0053859D01*
X0045845Y0053833D01*
X0045967Y0053802D01*
X0046089Y0053768D01*
X0046209Y0053729D01*
X0046328Y0053687D01*
X0046446Y0053642D01*
X0046562Y0053592D01*
X0046677Y0053539D01*
X0046789Y0053482D01*
X0046900Y0053422D01*
X0047009Y0053358D01*
X0047116Y0053291D01*
X0047221Y0053221D01*
X0047324Y0053147D01*
X0047424Y0053070D01*
X0047522Y0052990D01*
X0047617Y0052907D01*
X0047709Y0052821D01*
X0047799Y0052732D01*
X0047886Y0052640D01*
X0047969Y0052546D01*
X0048050Y0052449D01*
X0048128Y0052349D01*
X0048203Y0052247D01*
X0048274Y0052143D01*
X0048342Y0052036D01*
X0048406Y0051928D01*
X0048467Y0051817D01*
X0048525Y0051705D01*
X0048579Y0051591D01*
X0048629Y0051475D01*
X0048676Y0051358D01*
X0048719Y0051239D01*
X0048758Y0051119D01*
X0048794Y0050998D01*
X0048825Y0050875D01*
X0048853Y0050752D01*
X0048877Y0050628D01*
X0048897Y0050503D01*
X0048913Y0050378D01*
X0048925Y0050252D01*
X0048933Y0050126D01*
X0048937Y0050000D01*
X0048937Y0049874D01*
X0048933Y0049748D01*
X0048925Y0049622D01*
X0048913Y0049496D01*
X0048897Y0049371D01*
X0048877Y0049246D01*
X0048853Y0049122D01*
X0048825Y0048999D01*
X0048794Y0048876D01*
X0048758Y0048755D01*
X0048719Y0048635D01*
X0048676Y0048516D01*
X0048629Y0048399D01*
X0048579Y0048283D01*
X0048525Y0048169D01*
X0048467Y0048057D01*
X0048406Y0047946D01*
X0048342Y0047838D01*
X0048274Y0047731D01*
X0048203Y0047627D01*
X0048128Y0047525D01*
X0048050Y0047425D01*
X0047969Y0047328D01*
X0047886Y0047234D01*
X0047799Y0047142D01*
X0047709Y0047053D01*
X0047617Y0046967D01*
X0047522Y0046884D01*
X0047424Y0046804D01*
X0047324Y0046727D01*
X0047221Y0046653D01*
X0047116Y0046583D01*
X0047009Y0046516D01*
X0046900Y0046452D01*
X0046789Y0046392D01*
X0046677Y0046335D01*
X0046562Y0046282D01*
X0046446Y0046232D01*
X0046328Y0046187D01*
X0046209Y0046145D01*
X0046089Y0046106D01*
X0045967Y0046072D01*
X0045845Y0046041D01*
X0045721Y0046015D01*
X0045597Y0045992D01*
X0045472Y0045973D01*
X0045347Y0045958D01*
X0045221Y0045947D01*
X0045095Y0045940D01*
X0044969Y0045937D01*
X0044842Y0045938D01*
X0044716Y0045943D01*
X0044590Y0045952D01*
X0044464Y0045965D01*
X0044339Y0045982D01*
X0044215Y0046003D01*
X0044091Y0046027D01*
X0043968Y0046056D01*
X0043846Y0046089D01*
X0043725Y0046125D01*
X0043605Y0046165D01*
X0043487Y0046209D01*
X0043370Y0046257D01*
X0043254Y0046308D01*
X0043141Y0046363D01*
X0043029Y0046421D01*
X0042919Y0046483D01*
X0042811Y0046549D01*
X0042705Y0046618D01*
X0042601Y0046690D01*
X0042500Y0046765D01*
X0042401Y0046844D01*
X0042305Y0046925D01*
X0042211Y0047010D01*
X0042120Y0047097D01*
X0042032Y0047188D01*
X0041946Y0047281D01*
X0041864Y0047377D01*
X0041785Y0047475D01*
X0041708Y0047576D01*
X0041635Y0047679D01*
X0041566Y0047784D01*
X0041500Y0047892D01*
X0041437Y0048001D01*
X0041377Y0048113D01*
X0041321Y0048226D01*
X0041269Y0048341D01*
X0041221Y0048457D01*
X0041176Y0048576D01*
X0041135Y0048695D01*
X0041097Y0048816D01*
X0041064Y0048937D01*
X0041034Y0049060D01*
X0041009Y0049184D01*
X0040987Y0049308D01*
X0040969Y0049433D01*
X0040955Y0049559D01*
X0040945Y0049685D01*
X0040939Y0049811D01*
X0040937Y0049937D01*
X0040937Y0039937D02*
X0040939Y0040063D01*
X0040945Y0040189D01*
X0040955Y0040315D01*
X0040969Y0040441D01*
X0040987Y0040566D01*
X0041009Y0040690D01*
X0041034Y0040814D01*
X0041064Y0040937D01*
X0041097Y0041058D01*
X0041135Y0041179D01*
X0041176Y0041298D01*
X0041221Y0041417D01*
X0041269Y0041533D01*
X0041321Y0041648D01*
X0041377Y0041761D01*
X0041437Y0041873D01*
X0041500Y0041982D01*
X0041566Y0042090D01*
X0041635Y0042195D01*
X0041708Y0042298D01*
X0041785Y0042399D01*
X0041864Y0042497D01*
X0041946Y0042593D01*
X0042032Y0042686D01*
X0042120Y0042777D01*
X0042211Y0042864D01*
X0042305Y0042949D01*
X0042401Y0043030D01*
X0042500Y0043109D01*
X0042601Y0043184D01*
X0042705Y0043256D01*
X0042811Y0043325D01*
X0042919Y0043391D01*
X0043029Y0043453D01*
X0043141Y0043511D01*
X0043254Y0043566D01*
X0043370Y0043617D01*
X0043487Y0043665D01*
X0043605Y0043709D01*
X0043725Y0043749D01*
X0043846Y0043785D01*
X0043968Y0043818D01*
X0044091Y0043847D01*
X0044215Y0043871D01*
X0044339Y0043892D01*
X0044464Y0043909D01*
X0044590Y0043922D01*
X0044716Y0043931D01*
X0044842Y0043936D01*
X0044969Y0043937D01*
X0045095Y0043934D01*
X0045221Y0043927D01*
X0045347Y0043916D01*
X0045472Y0043901D01*
X0045597Y0043882D01*
X0045721Y0043859D01*
X0045845Y0043833D01*
X0045967Y0043802D01*
X0046089Y0043768D01*
X0046209Y0043729D01*
X0046328Y0043687D01*
X0046446Y0043642D01*
X0046562Y0043592D01*
X0046677Y0043539D01*
X0046789Y0043482D01*
X0046900Y0043422D01*
X0047009Y0043358D01*
X0047116Y0043291D01*
X0047221Y0043221D01*
X0047324Y0043147D01*
X0047424Y0043070D01*
X0047522Y0042990D01*
X0047617Y0042907D01*
X0047709Y0042821D01*
X0047799Y0042732D01*
X0047886Y0042640D01*
X0047969Y0042546D01*
X0048050Y0042449D01*
X0048128Y0042349D01*
X0048203Y0042247D01*
X0048274Y0042143D01*
X0048342Y0042036D01*
X0048406Y0041928D01*
X0048467Y0041817D01*
X0048525Y0041705D01*
X0048579Y0041591D01*
X0048629Y0041475D01*
X0048676Y0041358D01*
X0048719Y0041239D01*
X0048758Y0041119D01*
X0048794Y0040998D01*
X0048825Y0040875D01*
X0048853Y0040752D01*
X0048877Y0040628D01*
X0048897Y0040503D01*
X0048913Y0040378D01*
X0048925Y0040252D01*
X0048933Y0040126D01*
X0048937Y0040000D01*
X0048937Y0039874D01*
X0048933Y0039748D01*
X0048925Y0039622D01*
X0048913Y0039496D01*
X0048897Y0039371D01*
X0048877Y0039246D01*
X0048853Y0039122D01*
X0048825Y0038999D01*
X0048794Y0038876D01*
X0048758Y0038755D01*
X0048719Y0038635D01*
X0048676Y0038516D01*
X0048629Y0038399D01*
X0048579Y0038283D01*
X0048525Y0038169D01*
X0048467Y0038057D01*
X0048406Y0037946D01*
X0048342Y0037838D01*
X0048274Y0037731D01*
X0048203Y0037627D01*
X0048128Y0037525D01*
X0048050Y0037425D01*
X0047969Y0037328D01*
X0047886Y0037234D01*
X0047799Y0037142D01*
X0047709Y0037053D01*
X0047617Y0036967D01*
X0047522Y0036884D01*
X0047424Y0036804D01*
X0047324Y0036727D01*
X0047221Y0036653D01*
X0047116Y0036583D01*
X0047009Y0036516D01*
X0046900Y0036452D01*
X0046789Y0036392D01*
X0046677Y0036335D01*
X0046562Y0036282D01*
X0046446Y0036232D01*
X0046328Y0036187D01*
X0046209Y0036145D01*
X0046089Y0036106D01*
X0045967Y0036072D01*
X0045845Y0036041D01*
X0045721Y0036015D01*
X0045597Y0035992D01*
X0045472Y0035973D01*
X0045347Y0035958D01*
X0045221Y0035947D01*
X0045095Y0035940D01*
X0044969Y0035937D01*
X0044842Y0035938D01*
X0044716Y0035943D01*
X0044590Y0035952D01*
X0044464Y0035965D01*
X0044339Y0035982D01*
X0044215Y0036003D01*
X0044091Y0036027D01*
X0043968Y0036056D01*
X0043846Y0036089D01*
X0043725Y0036125D01*
X0043605Y0036165D01*
X0043487Y0036209D01*
X0043370Y0036257D01*
X0043254Y0036308D01*
X0043141Y0036363D01*
X0043029Y0036421D01*
X0042919Y0036483D01*
X0042811Y0036549D01*
X0042705Y0036618D01*
X0042601Y0036690D01*
X0042500Y0036765D01*
X0042401Y0036844D01*
X0042305Y0036925D01*
X0042211Y0037010D01*
X0042120Y0037097D01*
X0042032Y0037188D01*
X0041946Y0037281D01*
X0041864Y0037377D01*
X0041785Y0037475D01*
X0041708Y0037576D01*
X0041635Y0037679D01*
X0041566Y0037784D01*
X0041500Y0037892D01*
X0041437Y0038001D01*
X0041377Y0038113D01*
X0041321Y0038226D01*
X0041269Y0038341D01*
X0041221Y0038457D01*
X0041176Y0038576D01*
X0041135Y0038695D01*
X0041097Y0038816D01*
X0041064Y0038937D01*
X0041034Y0039060D01*
X0041009Y0039184D01*
X0040987Y0039308D01*
X0040969Y0039433D01*
X0040955Y0039559D01*
X0040945Y0039685D01*
X0040939Y0039811D01*
X0040937Y0039937D01*
X0069937Y0054937D02*
X0069937Y0064937D01*
X0089937Y0064937D01*
X0089937Y0054937D01*
X0090937Y0054937D01*
X0090937Y0064937D01*
X0089937Y0064937D01*
X0089937Y0054937D01*
X0069937Y0054937D01*
X0070937Y0059937D02*
X0070939Y0060063D01*
X0070945Y0060189D01*
X0070955Y0060315D01*
X0070969Y0060441D01*
X0070987Y0060566D01*
X0071009Y0060690D01*
X0071034Y0060814D01*
X0071064Y0060937D01*
X0071097Y0061058D01*
X0071135Y0061179D01*
X0071176Y0061298D01*
X0071221Y0061417D01*
X0071269Y0061533D01*
X0071321Y0061648D01*
X0071377Y0061761D01*
X0071437Y0061873D01*
X0071500Y0061982D01*
X0071566Y0062090D01*
X0071635Y0062195D01*
X0071708Y0062298D01*
X0071785Y0062399D01*
X0071864Y0062497D01*
X0071946Y0062593D01*
X0072032Y0062686D01*
X0072120Y0062777D01*
X0072211Y0062864D01*
X0072305Y0062949D01*
X0072401Y0063030D01*
X0072500Y0063109D01*
X0072601Y0063184D01*
X0072705Y0063256D01*
X0072811Y0063325D01*
X0072919Y0063391D01*
X0073029Y0063453D01*
X0073141Y0063511D01*
X0073254Y0063566D01*
X0073370Y0063617D01*
X0073487Y0063665D01*
X0073605Y0063709D01*
X0073725Y0063749D01*
X0073846Y0063785D01*
X0073968Y0063818D01*
X0074091Y0063847D01*
X0074215Y0063871D01*
X0074339Y0063892D01*
X0074464Y0063909D01*
X0074590Y0063922D01*
X0074716Y0063931D01*
X0074842Y0063936D01*
X0074969Y0063937D01*
X0075095Y0063934D01*
X0075221Y0063927D01*
X0075347Y0063916D01*
X0075472Y0063901D01*
X0075597Y0063882D01*
X0075721Y0063859D01*
X0075845Y0063833D01*
X0075967Y0063802D01*
X0076089Y0063768D01*
X0076209Y0063729D01*
X0076328Y0063687D01*
X0076446Y0063642D01*
X0076562Y0063592D01*
X0076677Y0063539D01*
X0076789Y0063482D01*
X0076900Y0063422D01*
X0077009Y0063358D01*
X0077116Y0063291D01*
X0077221Y0063221D01*
X0077324Y0063147D01*
X0077424Y0063070D01*
X0077522Y0062990D01*
X0077617Y0062907D01*
X0077709Y0062821D01*
X0077799Y0062732D01*
X0077886Y0062640D01*
X0077969Y0062546D01*
X0078050Y0062449D01*
X0078128Y0062349D01*
X0078203Y0062247D01*
X0078274Y0062143D01*
X0078342Y0062036D01*
X0078406Y0061928D01*
X0078467Y0061817D01*
X0078525Y0061705D01*
X0078579Y0061591D01*
X0078629Y0061475D01*
X0078676Y0061358D01*
X0078719Y0061239D01*
X0078758Y0061119D01*
X0078794Y0060998D01*
X0078825Y0060875D01*
X0078853Y0060752D01*
X0078877Y0060628D01*
X0078897Y0060503D01*
X0078913Y0060378D01*
X0078925Y0060252D01*
X0078933Y0060126D01*
X0078937Y0060000D01*
X0078937Y0059874D01*
X0078933Y0059748D01*
X0078925Y0059622D01*
X0078913Y0059496D01*
X0078897Y0059371D01*
X0078877Y0059246D01*
X0078853Y0059122D01*
X0078825Y0058999D01*
X0078794Y0058876D01*
X0078758Y0058755D01*
X0078719Y0058635D01*
X0078676Y0058516D01*
X0078629Y0058399D01*
X0078579Y0058283D01*
X0078525Y0058169D01*
X0078467Y0058057D01*
X0078406Y0057946D01*
X0078342Y0057838D01*
X0078274Y0057731D01*
X0078203Y0057627D01*
X0078128Y0057525D01*
X0078050Y0057425D01*
X0077969Y0057328D01*
X0077886Y0057234D01*
X0077799Y0057142D01*
X0077709Y0057053D01*
X0077617Y0056967D01*
X0077522Y0056884D01*
X0077424Y0056804D01*
X0077324Y0056727D01*
X0077221Y0056653D01*
X0077116Y0056583D01*
X0077009Y0056516D01*
X0076900Y0056452D01*
X0076789Y0056392D01*
X0076677Y0056335D01*
X0076562Y0056282D01*
X0076446Y0056232D01*
X0076328Y0056187D01*
X0076209Y0056145D01*
X0076089Y0056106D01*
X0075967Y0056072D01*
X0075845Y0056041D01*
X0075721Y0056015D01*
X0075597Y0055992D01*
X0075472Y0055973D01*
X0075347Y0055958D01*
X0075221Y0055947D01*
X0075095Y0055940D01*
X0074969Y0055937D01*
X0074842Y0055938D01*
X0074716Y0055943D01*
X0074590Y0055952D01*
X0074464Y0055965D01*
X0074339Y0055982D01*
X0074215Y0056003D01*
X0074091Y0056027D01*
X0073968Y0056056D01*
X0073846Y0056089D01*
X0073725Y0056125D01*
X0073605Y0056165D01*
X0073487Y0056209D01*
X0073370Y0056257D01*
X0073254Y0056308D01*
X0073141Y0056363D01*
X0073029Y0056421D01*
X0072919Y0056483D01*
X0072811Y0056549D01*
X0072705Y0056618D01*
X0072601Y0056690D01*
X0072500Y0056765D01*
X0072401Y0056844D01*
X0072305Y0056925D01*
X0072211Y0057010D01*
X0072120Y0057097D01*
X0072032Y0057188D01*
X0071946Y0057281D01*
X0071864Y0057377D01*
X0071785Y0057475D01*
X0071708Y0057576D01*
X0071635Y0057679D01*
X0071566Y0057784D01*
X0071500Y0057892D01*
X0071437Y0058001D01*
X0071377Y0058113D01*
X0071321Y0058226D01*
X0071269Y0058341D01*
X0071221Y0058457D01*
X0071176Y0058576D01*
X0071135Y0058695D01*
X0071097Y0058816D01*
X0071064Y0058937D01*
X0071034Y0059060D01*
X0071009Y0059184D01*
X0070987Y0059308D01*
X0070969Y0059433D01*
X0070955Y0059559D01*
X0070945Y0059685D01*
X0070939Y0059811D01*
X0070937Y0059937D01*
X0078937Y0058937D02*
X0082937Y0058937D01*
X0082937Y0060937D02*
X0078937Y0060937D01*
X0090937Y0064937D02*
X0091937Y0064937D01*
X0091937Y0054937D01*
X0090937Y0054937D01*
X0091937Y0054937D02*
X0109937Y0054937D01*
X0109937Y0064937D01*
X0091937Y0064937D01*
X0096937Y0060937D02*
X0100937Y0060937D01*
X0100937Y0058937D02*
X0096937Y0058937D01*
X0100937Y0059937D02*
X0100939Y0060063D01*
X0100945Y0060189D01*
X0100955Y0060315D01*
X0100969Y0060441D01*
X0100987Y0060566D01*
X0101009Y0060690D01*
X0101034Y0060814D01*
X0101064Y0060937D01*
X0101097Y0061058D01*
X0101135Y0061179D01*
X0101176Y0061298D01*
X0101221Y0061417D01*
X0101269Y0061533D01*
X0101321Y0061648D01*
X0101377Y0061761D01*
X0101437Y0061873D01*
X0101500Y0061982D01*
X0101566Y0062090D01*
X0101635Y0062195D01*
X0101708Y0062298D01*
X0101785Y0062399D01*
X0101864Y0062497D01*
X0101946Y0062593D01*
X0102032Y0062686D01*
X0102120Y0062777D01*
X0102211Y0062864D01*
X0102305Y0062949D01*
X0102401Y0063030D01*
X0102500Y0063109D01*
X0102601Y0063184D01*
X0102705Y0063256D01*
X0102811Y0063325D01*
X0102919Y0063391D01*
X0103029Y0063453D01*
X0103141Y0063511D01*
X0103254Y0063566D01*
X0103370Y0063617D01*
X0103487Y0063665D01*
X0103605Y0063709D01*
X0103725Y0063749D01*
X0103846Y0063785D01*
X0103968Y0063818D01*
X0104091Y0063847D01*
X0104215Y0063871D01*
X0104339Y0063892D01*
X0104464Y0063909D01*
X0104590Y0063922D01*
X0104716Y0063931D01*
X0104842Y0063936D01*
X0104969Y0063937D01*
X0105095Y0063934D01*
X0105221Y0063927D01*
X0105347Y0063916D01*
X0105472Y0063901D01*
X0105597Y0063882D01*
X0105721Y0063859D01*
X0105845Y0063833D01*
X0105967Y0063802D01*
X0106089Y0063768D01*
X0106209Y0063729D01*
X0106328Y0063687D01*
X0106446Y0063642D01*
X0106562Y0063592D01*
X0106677Y0063539D01*
X0106789Y0063482D01*
X0106900Y0063422D01*
X0107009Y0063358D01*
X0107116Y0063291D01*
X0107221Y0063221D01*
X0107324Y0063147D01*
X0107424Y0063070D01*
X0107522Y0062990D01*
X0107617Y0062907D01*
X0107709Y0062821D01*
X0107799Y0062732D01*
X0107886Y0062640D01*
X0107969Y0062546D01*
X0108050Y0062449D01*
X0108128Y0062349D01*
X0108203Y0062247D01*
X0108274Y0062143D01*
X0108342Y0062036D01*
X0108406Y0061928D01*
X0108467Y0061817D01*
X0108525Y0061705D01*
X0108579Y0061591D01*
X0108629Y0061475D01*
X0108676Y0061358D01*
X0108719Y0061239D01*
X0108758Y0061119D01*
X0108794Y0060998D01*
X0108825Y0060875D01*
X0108853Y0060752D01*
X0108877Y0060628D01*
X0108897Y0060503D01*
X0108913Y0060378D01*
X0108925Y0060252D01*
X0108933Y0060126D01*
X0108937Y0060000D01*
X0108937Y0059874D01*
X0108933Y0059748D01*
X0108925Y0059622D01*
X0108913Y0059496D01*
X0108897Y0059371D01*
X0108877Y0059246D01*
X0108853Y0059122D01*
X0108825Y0058999D01*
X0108794Y0058876D01*
X0108758Y0058755D01*
X0108719Y0058635D01*
X0108676Y0058516D01*
X0108629Y0058399D01*
X0108579Y0058283D01*
X0108525Y0058169D01*
X0108467Y0058057D01*
X0108406Y0057946D01*
X0108342Y0057838D01*
X0108274Y0057731D01*
X0108203Y0057627D01*
X0108128Y0057525D01*
X0108050Y0057425D01*
X0107969Y0057328D01*
X0107886Y0057234D01*
X0107799Y0057142D01*
X0107709Y0057053D01*
X0107617Y0056967D01*
X0107522Y0056884D01*
X0107424Y0056804D01*
X0107324Y0056727D01*
X0107221Y0056653D01*
X0107116Y0056583D01*
X0107009Y0056516D01*
X0106900Y0056452D01*
X0106789Y0056392D01*
X0106677Y0056335D01*
X0106562Y0056282D01*
X0106446Y0056232D01*
X0106328Y0056187D01*
X0106209Y0056145D01*
X0106089Y0056106D01*
X0105967Y0056072D01*
X0105845Y0056041D01*
X0105721Y0056015D01*
X0105597Y0055992D01*
X0105472Y0055973D01*
X0105347Y0055958D01*
X0105221Y0055947D01*
X0105095Y0055940D01*
X0104969Y0055937D01*
X0104842Y0055938D01*
X0104716Y0055943D01*
X0104590Y0055952D01*
X0104464Y0055965D01*
X0104339Y0055982D01*
X0104215Y0056003D01*
X0104091Y0056027D01*
X0103968Y0056056D01*
X0103846Y0056089D01*
X0103725Y0056125D01*
X0103605Y0056165D01*
X0103487Y0056209D01*
X0103370Y0056257D01*
X0103254Y0056308D01*
X0103141Y0056363D01*
X0103029Y0056421D01*
X0102919Y0056483D01*
X0102811Y0056549D01*
X0102705Y0056618D01*
X0102601Y0056690D01*
X0102500Y0056765D01*
X0102401Y0056844D01*
X0102305Y0056925D01*
X0102211Y0057010D01*
X0102120Y0057097D01*
X0102032Y0057188D01*
X0101946Y0057281D01*
X0101864Y0057377D01*
X0101785Y0057475D01*
X0101708Y0057576D01*
X0101635Y0057679D01*
X0101566Y0057784D01*
X0101500Y0057892D01*
X0101437Y0058001D01*
X0101377Y0058113D01*
X0101321Y0058226D01*
X0101269Y0058341D01*
X0101221Y0058457D01*
X0101176Y0058576D01*
X0101135Y0058695D01*
X0101097Y0058816D01*
X0101064Y0058937D01*
X0101034Y0059060D01*
X0101009Y0059184D01*
X0100987Y0059308D01*
X0100969Y0059433D01*
X0100955Y0059559D01*
X0100945Y0059685D01*
X0100939Y0059811D01*
X0100937Y0059937D01*
X0109701Y0077024D02*
X0109701Y0080173D01*
X0108126Y0078598D02*
X0111276Y0078598D01*
X0109701Y0069937D02*
X0109704Y0070188D01*
X0109713Y0070439D01*
X0109729Y0070690D01*
X0109750Y0070940D01*
X0109778Y0071190D01*
X0109812Y0071439D01*
X0109852Y0071687D01*
X0109898Y0071934D01*
X0109950Y0072180D01*
X0110008Y0072424D01*
X0110072Y0072667D01*
X0110142Y0072908D01*
X0110218Y0073148D01*
X0110299Y0073385D01*
X0110387Y0073621D01*
X0110480Y0073854D01*
X0110579Y0074085D01*
X0110684Y0074313D01*
X0110794Y0074539D01*
X0110910Y0074762D01*
X0111031Y0074982D01*
X0111157Y0075199D01*
X0111289Y0075413D01*
X0111426Y0075624D01*
X0111568Y0075831D01*
X0111715Y0076035D01*
X0111867Y0076235D01*
X0112024Y0076431D01*
X0112186Y0076623D01*
X0112353Y0076811D01*
X0112524Y0076995D01*
X0112699Y0077175D01*
X0112879Y0077350D01*
X0113063Y0077521D01*
X0113251Y0077688D01*
X0113443Y0077850D01*
X0113639Y0078007D01*
X0113839Y0078159D01*
X0114043Y0078306D01*
X0114250Y0078448D01*
X0114461Y0078585D01*
X0114675Y0078717D01*
X0114892Y0078843D01*
X0115112Y0078964D01*
X0115335Y0079080D01*
X0115561Y0079190D01*
X0115789Y0079295D01*
X0116020Y0079394D01*
X0116253Y0079487D01*
X0116489Y0079575D01*
X0116726Y0079656D01*
X0116966Y0079732D01*
X0117207Y0079802D01*
X0117450Y0079866D01*
X0117694Y0079924D01*
X0117940Y0079976D01*
X0118187Y0080022D01*
X0118435Y0080062D01*
X0118684Y0080096D01*
X0118934Y0080124D01*
X0119184Y0080145D01*
X0119435Y0080161D01*
X0119686Y0080170D01*
X0119937Y0080173D01*
X0120188Y0080170D01*
X0120439Y0080161D01*
X0120690Y0080145D01*
X0120940Y0080124D01*
X0121190Y0080096D01*
X0121439Y0080062D01*
X0121687Y0080022D01*
X0121934Y0079976D01*
X0122180Y0079924D01*
X0122424Y0079866D01*
X0122667Y0079802D01*
X0122908Y0079732D01*
X0123148Y0079656D01*
X0123385Y0079575D01*
X0123621Y0079487D01*
X0123854Y0079394D01*
X0124085Y0079295D01*
X0124313Y0079190D01*
X0124539Y0079080D01*
X0124762Y0078964D01*
X0124982Y0078843D01*
X0125199Y0078717D01*
X0125413Y0078585D01*
X0125624Y0078448D01*
X0125831Y0078306D01*
X0126035Y0078159D01*
X0126235Y0078007D01*
X0126431Y0077850D01*
X0126623Y0077688D01*
X0126811Y0077521D01*
X0126995Y0077350D01*
X0127175Y0077175D01*
X0127350Y0076995D01*
X0127521Y0076811D01*
X0127688Y0076623D01*
X0127850Y0076431D01*
X0128007Y0076235D01*
X0128159Y0076035D01*
X0128306Y0075831D01*
X0128448Y0075624D01*
X0128585Y0075413D01*
X0128717Y0075199D01*
X0128843Y0074982D01*
X0128964Y0074762D01*
X0129080Y0074539D01*
X0129190Y0074313D01*
X0129295Y0074085D01*
X0129394Y0073854D01*
X0129487Y0073621D01*
X0129575Y0073385D01*
X0129656Y0073148D01*
X0129732Y0072908D01*
X0129802Y0072667D01*
X0129866Y0072424D01*
X0129924Y0072180D01*
X0129976Y0071934D01*
X0130022Y0071687D01*
X0130062Y0071439D01*
X0130096Y0071190D01*
X0130124Y0070940D01*
X0130145Y0070690D01*
X0130161Y0070439D01*
X0130170Y0070188D01*
X0130173Y0069937D01*
X0130170Y0069686D01*
X0130161Y0069435D01*
X0130145Y0069184D01*
X0130124Y0068934D01*
X0130096Y0068684D01*
X0130062Y0068435D01*
X0130022Y0068187D01*
X0129976Y0067940D01*
X0129924Y0067694D01*
X0129866Y0067450D01*
X0129802Y0067207D01*
X0129732Y0066966D01*
X0129656Y0066726D01*
X0129575Y0066489D01*
X0129487Y0066253D01*
X0129394Y0066020D01*
X0129295Y0065789D01*
X0129190Y0065561D01*
X0129080Y0065335D01*
X0128964Y0065112D01*
X0128843Y0064892D01*
X0128717Y0064675D01*
X0128585Y0064461D01*
X0128448Y0064250D01*
X0128306Y0064043D01*
X0128159Y0063839D01*
X0128007Y0063639D01*
X0127850Y0063443D01*
X0127688Y0063251D01*
X0127521Y0063063D01*
X0127350Y0062879D01*
X0127175Y0062699D01*
X0126995Y0062524D01*
X0126811Y0062353D01*
X0126623Y0062186D01*
X0126431Y0062024D01*
X0126235Y0061867D01*
X0126035Y0061715D01*
X0125831Y0061568D01*
X0125624Y0061426D01*
X0125413Y0061289D01*
X0125199Y0061157D01*
X0124982Y0061031D01*
X0124762Y0060910D01*
X0124539Y0060794D01*
X0124313Y0060684D01*
X0124085Y0060579D01*
X0123854Y0060480D01*
X0123621Y0060387D01*
X0123385Y0060299D01*
X0123148Y0060218D01*
X0122908Y0060142D01*
X0122667Y0060072D01*
X0122424Y0060008D01*
X0122180Y0059950D01*
X0121934Y0059898D01*
X0121687Y0059852D01*
X0121439Y0059812D01*
X0121190Y0059778D01*
X0120940Y0059750D01*
X0120690Y0059729D01*
X0120439Y0059713D01*
X0120188Y0059704D01*
X0119937Y0059701D01*
X0119686Y0059704D01*
X0119435Y0059713D01*
X0119184Y0059729D01*
X0118934Y0059750D01*
X0118684Y0059778D01*
X0118435Y0059812D01*
X0118187Y0059852D01*
X0117940Y0059898D01*
X0117694Y0059950D01*
X0117450Y0060008D01*
X0117207Y0060072D01*
X0116966Y0060142D01*
X0116726Y0060218D01*
X0116489Y0060299D01*
X0116253Y0060387D01*
X0116020Y0060480D01*
X0115789Y0060579D01*
X0115561Y0060684D01*
X0115335Y0060794D01*
X0115112Y0060910D01*
X0114892Y0061031D01*
X0114675Y0061157D01*
X0114461Y0061289D01*
X0114250Y0061426D01*
X0114043Y0061568D01*
X0113839Y0061715D01*
X0113639Y0061867D01*
X0113443Y0062024D01*
X0113251Y0062186D01*
X0113063Y0062353D01*
X0112879Y0062524D01*
X0112699Y0062699D01*
X0112524Y0062879D01*
X0112353Y0063063D01*
X0112186Y0063251D01*
X0112024Y0063443D01*
X0111867Y0063639D01*
X0111715Y0063839D01*
X0111568Y0064043D01*
X0111426Y0064250D01*
X0111289Y0064461D01*
X0111157Y0064675D01*
X0111031Y0064892D01*
X0110910Y0065112D01*
X0110794Y0065335D01*
X0110684Y0065561D01*
X0110579Y0065789D01*
X0110480Y0066020D01*
X0110387Y0066253D01*
X0110299Y0066489D01*
X0110218Y0066726D01*
X0110142Y0066966D01*
X0110072Y0067207D01*
X0110008Y0067450D01*
X0109950Y0067694D01*
X0109898Y0067940D01*
X0109852Y0068187D01*
X0109812Y0068435D01*
X0109778Y0068684D01*
X0109750Y0068934D01*
X0109729Y0069184D01*
X0109713Y0069435D01*
X0109704Y0069686D01*
X0109701Y0069937D01*
X0103126Y0088126D02*
X0103126Y0111748D01*
X0026748Y0111748D01*
X0026748Y0105055D01*
X0026890Y0105053D01*
X0027032Y0105047D01*
X0027174Y0105037D01*
X0027316Y0105023D01*
X0027457Y0105006D01*
X0027598Y0104984D01*
X0027738Y0104958D01*
X0027877Y0104929D01*
X0028015Y0104896D01*
X0028153Y0104858D01*
X0028289Y0104818D01*
X0028424Y0104773D01*
X0028558Y0104724D01*
X0028690Y0104672D01*
X0028821Y0104616D01*
X0028950Y0104557D01*
X0029078Y0104494D01*
X0029204Y0104427D01*
X0029328Y0104357D01*
X0029449Y0104284D01*
X0029569Y0104207D01*
X0029687Y0104127D01*
X0029802Y0104044D01*
X0029915Y0103957D01*
X0030026Y0103868D01*
X0030134Y0103775D01*
X0030239Y0103680D01*
X0030342Y0103581D01*
X0030442Y0103480D01*
X0030539Y0103376D01*
X0030633Y0103269D01*
X0030724Y0103160D01*
X0030812Y0103048D01*
X0030897Y0102934D01*
X0030979Y0102817D01*
X0031057Y0102699D01*
X0031132Y0102578D01*
X0031204Y0102455D01*
X0031272Y0102330D01*
X0031337Y0102203D01*
X0031398Y0102075D01*
X0031456Y0101945D01*
X0031510Y0101813D01*
X0031560Y0101680D01*
X0031607Y0101546D01*
X0031649Y0101410D01*
X0031689Y0101273D01*
X0031724Y0101135D01*
X0031755Y0100996D01*
X0031783Y0100857D01*
X0031806Y0100717D01*
X0031826Y0100576D01*
X0031842Y0100434D01*
X0031854Y0100292D01*
X0031862Y0100150D01*
X0031866Y0100008D01*
X0031866Y0099866D01*
X0031862Y0099724D01*
X0031854Y0099582D01*
X0031842Y0099440D01*
X0031826Y0099298D01*
X0031806Y0099157D01*
X0031783Y0099017D01*
X0031755Y0098878D01*
X0031724Y0098739D01*
X0031689Y0098601D01*
X0031649Y0098464D01*
X0031607Y0098328D01*
X0031560Y0098194D01*
X0031510Y0098061D01*
X0031456Y0097929D01*
X0031398Y0097799D01*
X0031337Y0097671D01*
X0031272Y0097544D01*
X0031204Y0097419D01*
X0031132Y0097296D01*
X0031057Y0097175D01*
X0030979Y0097057D01*
X0030897Y0096940D01*
X0030812Y0096826D01*
X0030724Y0096714D01*
X0030633Y0096605D01*
X0030539Y0096498D01*
X0030442Y0096394D01*
X0030342Y0096293D01*
X0030239Y0096194D01*
X0030134Y0096099D01*
X0030026Y0096006D01*
X0029915Y0095917D01*
X0029802Y0095830D01*
X0029687Y0095747D01*
X0029569Y0095667D01*
X0029449Y0095590D01*
X0029328Y0095517D01*
X0029204Y0095447D01*
X0029078Y0095380D01*
X0028950Y0095317D01*
X0028821Y0095258D01*
X0028690Y0095202D01*
X0028558Y0095150D01*
X0028424Y0095101D01*
X0028289Y0095056D01*
X0028153Y0095016D01*
X0028015Y0094978D01*
X0027877Y0094945D01*
X0027738Y0094916D01*
X0027598Y0094890D01*
X0027457Y0094868D01*
X0027316Y0094851D01*
X0027174Y0094837D01*
X0027032Y0094827D01*
X0026890Y0094821D01*
X0026748Y0094819D01*
X0026748Y0088126D01*
X0103126Y0088126D01*
X0134031Y0114937D02*
X0134033Y0115090D01*
X0134039Y0115244D01*
X0134049Y0115397D01*
X0134063Y0115549D01*
X0134081Y0115702D01*
X0134103Y0115853D01*
X0134128Y0116004D01*
X0134158Y0116155D01*
X0134192Y0116305D01*
X0134229Y0116453D01*
X0134270Y0116601D01*
X0134315Y0116747D01*
X0134364Y0116893D01*
X0134417Y0117037D01*
X0134473Y0117179D01*
X0134533Y0117320D01*
X0134597Y0117460D01*
X0134664Y0117598D01*
X0134735Y0117734D01*
X0134810Y0117868D01*
X0134887Y0118000D01*
X0134969Y0118130D01*
X0135053Y0118258D01*
X0135141Y0118384D01*
X0135232Y0118507D01*
X0135326Y0118628D01*
X0135424Y0118746D01*
X0135524Y0118862D01*
X0135628Y0118975D01*
X0135734Y0119086D01*
X0135843Y0119194D01*
X0135955Y0119299D01*
X0136069Y0119400D01*
X0136187Y0119499D01*
X0136306Y0119595D01*
X0136428Y0119688D01*
X0136553Y0119777D01*
X0136680Y0119864D01*
X0136809Y0119946D01*
X0136940Y0120026D01*
X0137073Y0120102D01*
X0137208Y0120175D01*
X0137345Y0120244D01*
X0137484Y0120309D01*
X0137624Y0120371D01*
X0137766Y0120429D01*
X0137909Y0120484D01*
X0138054Y0120535D01*
X0138200Y0120582D01*
X0138347Y0120625D01*
X0138495Y0120664D01*
X0138644Y0120700D01*
X0138794Y0120731D01*
X0138945Y0120759D01*
X0139096Y0120783D01*
X0139249Y0120803D01*
X0139401Y0120819D01*
X0139554Y0120831D01*
X0139707Y0120839D01*
X0139860Y0120843D01*
X0140014Y0120843D01*
X0140167Y0120839D01*
X0140320Y0120831D01*
X0140473Y0120819D01*
X0140625Y0120803D01*
X0140778Y0120783D01*
X0140929Y0120759D01*
X0141080Y0120731D01*
X0141230Y0120700D01*
X0141379Y0120664D01*
X0141527Y0120625D01*
X0141674Y0120582D01*
X0141820Y0120535D01*
X0141965Y0120484D01*
X0142108Y0120429D01*
X0142250Y0120371D01*
X0142390Y0120309D01*
X0142529Y0120244D01*
X0142666Y0120175D01*
X0142801Y0120102D01*
X0142934Y0120026D01*
X0143065Y0119946D01*
X0143194Y0119864D01*
X0143321Y0119777D01*
X0143446Y0119688D01*
X0143568Y0119595D01*
X0143687Y0119499D01*
X0143805Y0119400D01*
X0143919Y0119299D01*
X0144031Y0119194D01*
X0144140Y0119086D01*
X0144246Y0118975D01*
X0144350Y0118862D01*
X0144450Y0118746D01*
X0144548Y0118628D01*
X0144642Y0118507D01*
X0144733Y0118384D01*
X0144821Y0118258D01*
X0144905Y0118130D01*
X0144987Y0118000D01*
X0145064Y0117868D01*
X0145139Y0117734D01*
X0145210Y0117598D01*
X0145277Y0117460D01*
X0145341Y0117320D01*
X0145401Y0117179D01*
X0145457Y0117037D01*
X0145510Y0116893D01*
X0145559Y0116747D01*
X0145604Y0116601D01*
X0145645Y0116453D01*
X0145682Y0116305D01*
X0145716Y0116155D01*
X0145746Y0116004D01*
X0145771Y0115853D01*
X0145793Y0115702D01*
X0145811Y0115549D01*
X0145825Y0115397D01*
X0145835Y0115244D01*
X0145841Y0115090D01*
X0145843Y0114937D01*
X0145841Y0114784D01*
X0145835Y0114630D01*
X0145825Y0114477D01*
X0145811Y0114325D01*
X0145793Y0114172D01*
X0145771Y0114021D01*
X0145746Y0113870D01*
X0145716Y0113719D01*
X0145682Y0113569D01*
X0145645Y0113421D01*
X0145604Y0113273D01*
X0145559Y0113127D01*
X0145510Y0112981D01*
X0145457Y0112837D01*
X0145401Y0112695D01*
X0145341Y0112554D01*
X0145277Y0112414D01*
X0145210Y0112276D01*
X0145139Y0112140D01*
X0145064Y0112006D01*
X0144987Y0111874D01*
X0144905Y0111744D01*
X0144821Y0111616D01*
X0144733Y0111490D01*
X0144642Y0111367D01*
X0144548Y0111246D01*
X0144450Y0111128D01*
X0144350Y0111012D01*
X0144246Y0110899D01*
X0144140Y0110788D01*
X0144031Y0110680D01*
X0143919Y0110575D01*
X0143805Y0110474D01*
X0143687Y0110375D01*
X0143568Y0110279D01*
X0143446Y0110186D01*
X0143321Y0110097D01*
X0143194Y0110010D01*
X0143065Y0109928D01*
X0142934Y0109848D01*
X0142801Y0109772D01*
X0142666Y0109699D01*
X0142529Y0109630D01*
X0142390Y0109565D01*
X0142250Y0109503D01*
X0142108Y0109445D01*
X0141965Y0109390D01*
X0141820Y0109339D01*
X0141674Y0109292D01*
X0141527Y0109249D01*
X0141379Y0109210D01*
X0141230Y0109174D01*
X0141080Y0109143D01*
X0140929Y0109115D01*
X0140778Y0109091D01*
X0140625Y0109071D01*
X0140473Y0109055D01*
X0140320Y0109043D01*
X0140167Y0109035D01*
X0140014Y0109031D01*
X0139860Y0109031D01*
X0139707Y0109035D01*
X0139554Y0109043D01*
X0139401Y0109055D01*
X0139249Y0109071D01*
X0139096Y0109091D01*
X0138945Y0109115D01*
X0138794Y0109143D01*
X0138644Y0109174D01*
X0138495Y0109210D01*
X0138347Y0109249D01*
X0138200Y0109292D01*
X0138054Y0109339D01*
X0137909Y0109390D01*
X0137766Y0109445D01*
X0137624Y0109503D01*
X0137484Y0109565D01*
X0137345Y0109630D01*
X0137208Y0109699D01*
X0137073Y0109772D01*
X0136940Y0109848D01*
X0136809Y0109928D01*
X0136680Y0110010D01*
X0136553Y0110097D01*
X0136428Y0110186D01*
X0136306Y0110279D01*
X0136187Y0110375D01*
X0136069Y0110474D01*
X0135955Y0110575D01*
X0135843Y0110680D01*
X0135734Y0110788D01*
X0135628Y0110899D01*
X0135524Y0111012D01*
X0135424Y0111128D01*
X0135326Y0111246D01*
X0135232Y0111367D01*
X0135141Y0111490D01*
X0135053Y0111616D01*
X0134969Y0111744D01*
X0134887Y0111874D01*
X0134810Y0112006D01*
X0134735Y0112140D01*
X0134664Y0112276D01*
X0134597Y0112414D01*
X0134533Y0112554D01*
X0134473Y0112695D01*
X0134417Y0112837D01*
X0134364Y0112981D01*
X0134315Y0113127D01*
X0134270Y0113273D01*
X0134229Y0113421D01*
X0134192Y0113569D01*
X0134158Y0113719D01*
X0134128Y0113870D01*
X0134103Y0114021D01*
X0134081Y0114172D01*
X0134063Y0114325D01*
X0134049Y0114477D01*
X0134039Y0114630D01*
X0134033Y0114784D01*
X0134031Y0114937D01*
X0104504Y0114937D02*
X0104515Y0115807D01*
X0104547Y0116676D01*
X0104600Y0117544D01*
X0104675Y0118410D01*
X0104770Y0119274D01*
X0104888Y0120136D01*
X0105026Y0120995D01*
X0105185Y0121850D01*
X0105365Y0122700D01*
X0105566Y0123547D01*
X0105788Y0124387D01*
X0106030Y0125223D01*
X0106292Y0126052D01*
X0106575Y0126874D01*
X0106878Y0127689D01*
X0107201Y0128497D01*
X0107544Y0129296D01*
X0107906Y0130087D01*
X0108287Y0130868D01*
X0108688Y0131640D01*
X0109107Y0132402D01*
X0109545Y0133153D01*
X0110001Y0133894D01*
X0110476Y0134623D01*
X0110968Y0135340D01*
X0111477Y0136044D01*
X0112004Y0136737D01*
X0112547Y0137415D01*
X0113107Y0138081D01*
X0113683Y0138732D01*
X0114275Y0139369D01*
X0114882Y0139992D01*
X0115505Y0140599D01*
X0116142Y0141191D01*
X0116793Y0141767D01*
X0117459Y0142327D01*
X0118137Y0142870D01*
X0118830Y0143397D01*
X0119534Y0143906D01*
X0120251Y0144398D01*
X0120980Y0144873D01*
X0121721Y0145329D01*
X0122472Y0145767D01*
X0123234Y0146186D01*
X0124006Y0146587D01*
X0124787Y0146968D01*
X0125578Y0147330D01*
X0126377Y0147673D01*
X0127185Y0147996D01*
X0128000Y0148299D01*
X0128822Y0148582D01*
X0129651Y0148844D01*
X0130487Y0149086D01*
X0131327Y0149308D01*
X0132174Y0149509D01*
X0133024Y0149689D01*
X0133879Y0149848D01*
X0134738Y0149986D01*
X0135600Y0150104D01*
X0136464Y0150199D01*
X0137330Y0150274D01*
X0138198Y0150327D01*
X0139067Y0150359D01*
X0139937Y0150370D01*
X0140807Y0150359D01*
X0141676Y0150327D01*
X0142544Y0150274D01*
X0143410Y0150199D01*
X0144274Y0150104D01*
X0145136Y0149986D01*
X0145995Y0149848D01*
X0146850Y0149689D01*
X0147700Y0149509D01*
X0148547Y0149308D01*
X0149387Y0149086D01*
X0150223Y0148844D01*
X0151052Y0148582D01*
X0151874Y0148299D01*
X0152689Y0147996D01*
X0153497Y0147673D01*
X0154296Y0147330D01*
X0155087Y0146968D01*
X0155868Y0146587D01*
X0156640Y0146186D01*
X0157402Y0145767D01*
X0158153Y0145329D01*
X0158894Y0144873D01*
X0159623Y0144398D01*
X0160340Y0143906D01*
X0161044Y0143397D01*
X0161737Y0142870D01*
X0162415Y0142327D01*
X0163081Y0141767D01*
X0163732Y0141191D01*
X0164369Y0140599D01*
X0164992Y0139992D01*
X0165599Y0139369D01*
X0166191Y0138732D01*
X0166767Y0138081D01*
X0167327Y0137415D01*
X0167870Y0136737D01*
X0168397Y0136044D01*
X0168906Y0135340D01*
X0169398Y0134623D01*
X0169873Y0133894D01*
X0170329Y0133153D01*
X0170767Y0132402D01*
X0171186Y0131640D01*
X0171587Y0130868D01*
X0171968Y0130087D01*
X0172330Y0129296D01*
X0172673Y0128497D01*
X0172996Y0127689D01*
X0173299Y0126874D01*
X0173582Y0126052D01*
X0173844Y0125223D01*
X0174086Y0124387D01*
X0174308Y0123547D01*
X0174509Y0122700D01*
X0174689Y0121850D01*
X0174848Y0120995D01*
X0174986Y0120136D01*
X0175104Y0119274D01*
X0175199Y0118410D01*
X0175274Y0117544D01*
X0175327Y0116676D01*
X0175359Y0115807D01*
X0175370Y0114937D01*
X0175359Y0114067D01*
X0175327Y0113198D01*
X0175274Y0112330D01*
X0175199Y0111464D01*
X0175104Y0110600D01*
X0174986Y0109738D01*
X0174848Y0108879D01*
X0174689Y0108024D01*
X0174509Y0107174D01*
X0174308Y0106327D01*
X0174086Y0105487D01*
X0173844Y0104651D01*
X0173582Y0103822D01*
X0173299Y0103000D01*
X0172996Y0102185D01*
X0172673Y0101377D01*
X0172330Y0100578D01*
X0171968Y0099787D01*
X0171587Y0099006D01*
X0171186Y0098234D01*
X0170767Y0097472D01*
X0170329Y0096721D01*
X0169873Y0095980D01*
X0169398Y0095251D01*
X0168906Y0094534D01*
X0168397Y0093830D01*
X0167870Y0093137D01*
X0167327Y0092459D01*
X0166767Y0091793D01*
X0166191Y0091142D01*
X0165599Y0090505D01*
X0164992Y0089882D01*
X0164369Y0089275D01*
X0163732Y0088683D01*
X0163081Y0088107D01*
X0162415Y0087547D01*
X0161737Y0087004D01*
X0161044Y0086477D01*
X0160340Y0085968D01*
X0159623Y0085476D01*
X0158894Y0085001D01*
X0158153Y0084545D01*
X0157402Y0084107D01*
X0156640Y0083688D01*
X0155868Y0083287D01*
X0155087Y0082906D01*
X0154296Y0082544D01*
X0153497Y0082201D01*
X0152689Y0081878D01*
X0151874Y0081575D01*
X0151052Y0081292D01*
X0150223Y0081030D01*
X0149387Y0080788D01*
X0148547Y0080566D01*
X0147700Y0080365D01*
X0146850Y0080185D01*
X0145995Y0080026D01*
X0145136Y0079888D01*
X0144274Y0079770D01*
X0143410Y0079675D01*
X0142544Y0079600D01*
X0141676Y0079547D01*
X0140807Y0079515D01*
X0139937Y0079504D01*
X0139067Y0079515D01*
X0138198Y0079547D01*
X0137330Y0079600D01*
X0136464Y0079675D01*
X0135600Y0079770D01*
X0134738Y0079888D01*
X0133879Y0080026D01*
X0133024Y0080185D01*
X0132174Y0080365D01*
X0131327Y0080566D01*
X0130487Y0080788D01*
X0129651Y0081030D01*
X0128822Y0081292D01*
X0128000Y0081575D01*
X0127185Y0081878D01*
X0126377Y0082201D01*
X0125578Y0082544D01*
X0124787Y0082906D01*
X0124006Y0083287D01*
X0123234Y0083688D01*
X0122472Y0084107D01*
X0121721Y0084545D01*
X0120980Y0085001D01*
X0120251Y0085476D01*
X0119534Y0085968D01*
X0118830Y0086477D01*
X0118137Y0087004D01*
X0117459Y0087547D01*
X0116793Y0088107D01*
X0116142Y0088683D01*
X0115505Y0089275D01*
X0114882Y0089882D01*
X0114275Y0090505D01*
X0113683Y0091142D01*
X0113107Y0091793D01*
X0112547Y0092459D01*
X0112004Y0093137D01*
X0111477Y0093830D01*
X0110968Y0094534D01*
X0110476Y0095251D01*
X0110001Y0095980D01*
X0109545Y0096721D01*
X0109107Y0097472D01*
X0108688Y0098234D01*
X0108287Y0099006D01*
X0107906Y0099787D01*
X0107544Y0100578D01*
X0107201Y0101377D01*
X0106878Y0102185D01*
X0106575Y0103000D01*
X0106292Y0103822D01*
X0106030Y0104651D01*
X0105788Y0105487D01*
X0105566Y0106327D01*
X0105365Y0107174D01*
X0105185Y0108024D01*
X0105026Y0108879D01*
X0104888Y0109738D01*
X0104770Y0110600D01*
X0104675Y0111464D01*
X0104600Y0112330D01*
X0104547Y0113198D01*
X0104515Y0114067D01*
X0104504Y0114937D01*
X0094937Y0134937D02*
X0074937Y0134937D01*
X0074937Y0144937D01*
X0094937Y0144937D01*
X0094937Y0134937D01*
X0072937Y0139937D02*
X0068937Y0139937D01*
X0070937Y0137937D02*
X0070937Y0141937D01*
X0066591Y0141669D02*
X0066591Y0158205D01*
X0023283Y0158205D01*
X0023283Y0141669D01*
X0066591Y0141669D01*
X0096551Y0039268D02*
X0096551Y0036118D01*
X0093795Y0036118D01*
X0093795Y0033756D02*
X0096551Y0033756D01*
X0096551Y0036118D01*
X0096551Y0033756D02*
X0096551Y0030606D01*
X0123323Y0030606D01*
X0123323Y0033756D01*
X0126079Y0033756D01*
X0126079Y0036118D02*
X0123323Y0036118D01*
X0123323Y0033756D01*
X0123323Y0036118D02*
X0123323Y0039268D01*
X0096551Y0039268D01*
D13*
X0105533Y0041137D02*
X0105533Y0045741D01*
X0107835Y0045741D01*
X0108602Y0044974D01*
X0108602Y0043439D01*
X0107835Y0042672D01*
X0105533Y0042672D01*
X0107068Y0042672D02*
X0108602Y0041137D01*
X0110137Y0043439D02*
X0113206Y0043439D01*
X0112439Y0041137D02*
X0112439Y0045741D01*
X0110137Y0043439D01*
X0083206Y0049137D02*
X0080137Y0049137D01*
X0081672Y0049137D02*
X0081672Y0053741D01*
X0080137Y0052206D01*
X0078602Y0051439D02*
X0078602Y0052974D01*
X0077835Y0053741D01*
X0075533Y0053741D01*
X0075533Y0049137D01*
X0075533Y0050672D02*
X0077835Y0050672D01*
X0078602Y0051439D01*
X0077068Y0050672D02*
X0078602Y0049137D01*
X0043206Y0056137D02*
X0040137Y0056137D01*
X0043206Y0059206D01*
X0043206Y0059974D01*
X0042439Y0060741D01*
X0040904Y0060741D01*
X0040137Y0059974D01*
X0038602Y0059974D02*
X0038602Y0058439D01*
X0037835Y0057672D01*
X0035533Y0057672D01*
X0037068Y0057672D02*
X0038602Y0056137D01*
X0035533Y0056137D02*
X0035533Y0060741D01*
X0037835Y0060741D01*
X0038602Y0059974D01*
X0027439Y0040741D02*
X0025904Y0040741D01*
X0025137Y0039974D01*
X0023602Y0039974D02*
X0022835Y0040741D01*
X0020533Y0040741D01*
X0020533Y0036137D01*
X0020533Y0037672D02*
X0022835Y0037672D01*
X0023602Y0038439D01*
X0023602Y0039974D01*
X0022068Y0037672D02*
X0023602Y0036137D01*
X0025137Y0036904D02*
X0025904Y0036137D01*
X0027439Y0036137D01*
X0028206Y0036904D01*
X0028206Y0037672D01*
X0027439Y0038439D01*
X0026672Y0038439D01*
X0027439Y0038439D02*
X0028206Y0039206D01*
X0028206Y0039974D01*
X0027439Y0040741D01*
X0036300Y0015741D02*
X0035533Y0014974D01*
X0035533Y0011904D01*
X0036300Y0011137D01*
X0037835Y0011137D01*
X0038602Y0011904D01*
X0040137Y0011137D02*
X0043206Y0011137D01*
X0041672Y0011137D02*
X0041672Y0015741D01*
X0040137Y0014206D01*
X0038602Y0014974D02*
X0037835Y0015741D01*
X0036300Y0015741D01*
X0115533Y0082810D02*
X0116300Y0082043D01*
X0117835Y0082043D01*
X0118602Y0082810D01*
X0120137Y0082043D02*
X0123206Y0085112D01*
X0123206Y0085879D01*
X0122439Y0086646D01*
X0120904Y0086646D01*
X0120137Y0085879D01*
X0118602Y0085879D02*
X0117835Y0086646D01*
X0116300Y0086646D01*
X0115533Y0085879D01*
X0115533Y0082810D01*
X0120137Y0082043D02*
X0123206Y0082043D01*
X0101737Y0110533D02*
X0097133Y0113602D01*
X0098668Y0115137D02*
X0097133Y0116672D01*
X0101737Y0116672D01*
X0101737Y0118206D02*
X0101737Y0115137D01*
X0101737Y0113602D02*
X0097133Y0110533D01*
X0076647Y0102241D02*
X0076647Y0097637D01*
X0077414Y0099939D02*
X0074345Y0099939D01*
X0076647Y0102241D01*
X0071276Y0102241D02*
X0071276Y0097637D01*
X0072810Y0097637D02*
X0069741Y0097637D01*
X0068206Y0098404D02*
X0067439Y0097637D01*
X0065904Y0097637D01*
X0065137Y0098404D01*
X0065137Y0101474D01*
X0065904Y0102241D01*
X0067439Y0102241D01*
X0068206Y0101474D01*
X0069741Y0100706D02*
X0071276Y0102241D01*
X0063602Y0102241D02*
X0063602Y0097637D01*
X0063602Y0099939D02*
X0060533Y0099939D01*
X0058998Y0099939D02*
X0055929Y0099939D01*
X0058231Y0102241D01*
X0058231Y0097637D01*
X0060533Y0097637D02*
X0060533Y0102241D01*
X0054394Y0102241D02*
X0054394Y0101474D01*
X0051325Y0098404D01*
X0051325Y0097637D01*
X0051325Y0102241D02*
X0054394Y0102241D01*
X0024737Y0101672D02*
X0020133Y0101672D01*
X0021668Y0100137D01*
X0020133Y0098602D02*
X0023970Y0098602D01*
X0024737Y0097835D01*
X0024737Y0096300D01*
X0023970Y0095533D01*
X0020133Y0095533D01*
X0024737Y0100137D02*
X0024737Y0103206D01*
X0080533Y0147904D02*
X0081300Y0147137D01*
X0082068Y0147137D01*
X0082835Y0147904D01*
X0082835Y0151741D01*
X0082068Y0151741D02*
X0083602Y0151741D01*
X0085137Y0150206D02*
X0086672Y0151741D01*
X0086672Y0147137D01*
X0088206Y0147137D02*
X0085137Y0147137D01*
D14*
X0047796Y0134951D02*
X0044793Y0134951D01*
X0046295Y0134951D02*
X0046295Y0139455D01*
X0044793Y0137953D01*
X0043192Y0138704D02*
X0042441Y0139455D01*
X0040940Y0139455D01*
X0040189Y0138704D01*
X0040189Y0137953D01*
X0040940Y0137203D01*
X0042441Y0137203D01*
X0043192Y0136452D01*
X0043192Y0135701D01*
X0042441Y0134951D01*
X0040940Y0134951D01*
X0040189Y0135701D01*
X0095583Y0071691D02*
X0097835Y0071691D01*
X0098586Y0070940D01*
X0098586Y0067938D01*
X0097835Y0067187D01*
X0095583Y0067187D01*
X0095583Y0071691D01*
X0100187Y0070190D02*
X0101688Y0071691D01*
X0101688Y0067187D01*
X0100187Y0067187D02*
X0103190Y0067187D01*
X0062687Y0043586D02*
X0062687Y0040583D01*
X0062687Y0042084D02*
X0058183Y0042084D01*
X0059684Y0040583D01*
X0058934Y0038982D02*
X0061936Y0038982D01*
X0062687Y0038231D01*
X0062687Y0036730D01*
X0061936Y0035979D01*
X0058934Y0035979D01*
X0058183Y0036730D01*
X0058183Y0038231D01*
X0058934Y0038982D01*
X0061186Y0037480D02*
X0062687Y0038982D01*
M02*
