%
M48
M72
T01C0.02756
T02C0.03150
T03C0.03200
%
T01
X44937Y119937
X134937Y100252
X134937Y139622
T02
X19937Y24937
X24937Y39937
X34937Y39937
X34937Y49937
X24937Y49937
X39937Y24937
X64937Y59937
X74937Y59937
X74937Y79937
X64937Y79937
X54937Y79937
X44937Y79937
X34937Y79937
X24937Y79937
X24937Y119937
X34937Y119937
X54937Y119937
X64937Y119937
X74937Y119937
X84937Y119937
X79937Y139937
X69937Y139937
X44937Y149937
X34937Y149937
X24937Y149937
X84937Y79937
X109937Y73874
X109937Y66000
X109937Y39937
X99937Y39937
T03
X69937Y34937
X69937Y44937
X69937Y24937
M30
